<svg width="160" height="157" viewBox="0 0 160 157" fill="none" xmlns="http://www.w3.org/2000/svg">
<path d="M53.2294 43.0475L58.5553 32.976L46.0679 33.5773L51.9357 24.2134L40.5215 24.4203L46.7054 16.1276L34.8449 17.1792L41.4299 8.56485L31.2668 5.4827C62.5557 -13.0046 79.0276 24.4623 80.8658 59.1771C90.3861 24.0204 118.466 -12.0733 146.714 19.4027L135.695 18.5944L140.041 29.3988L128.411 23.9477L132.438 34.2877L121.029 29.8183L123.407 37.616C139.175 32.3047 153.625 36.2735 159.692 57.9996L150.252 52.6688L149.396 64.4128L141.43 54.5651L140.498 65.7414L132.298 56.892L130.433 68.6697L121.717 58.696L118.79 71.4889L110.927 62.8242L109.023 70.3422C130.935 73.9698 147.12 86.4243 133.113 110.212L131.134 101.155L123.362 107.913L125.017 96.9657L117.544 103.323L118.453 92.8459L110.085 99.0074L111.4 87.5206L101.814 93.671L102.783 83.5155L99.9675 85.2328C98.9156 88.7261 96.7878 91.6097 93.8526 93.3549C93.0105 93.8583 92.1047 94.2359 91.1724 94.5324L78.4432 168.406H74.395L74.8545 165.744L57.684 162.387L75.9994 159.109L78.0554 147.167L61.1532 143.855L79.1817 140.642L81.2935 128.389L65.6849 125.332L82.3321 122.358L84.5103 109.717L69.6561 106.808L85.4984 103.977L87.0232 95.1337C84.9208 95.082 82.8524 94.5635 80.9535 93.6122C79.9175 94.7477 78.7673 95.7155 77.4923 96.4147L83.2485 97.5418L67.2123 100.409L63.4961 113.406L77.0805 116.068L61.9634 118.765L58.21 131.896L71.9804 134.592L56.656 137.33L52.9531 150.28L67.446 153.119L51.3168 155.999L47.7679 168.406H43.6081L64.5745 95.0722C62.5512 93.1561 61.3044 90.4947 61.0921 87.6381C61.0055 86.2811 61.1275 84.9183 61.4533 83.6022L55.7449 79.8236L57.1395 89.4421L48.1026 83.1995L49.8718 94.1017L41.9506 87.8954L43.2947 97.8159L36.1757 91.4726L38.2238 101.874L30.8153 95.1449L29.4605 103.591C15.0898 79.7453 30.6266 68.7927 51.4098 66.8965L49.0828 58.4275L41.2228 66.4238L38.2902 54.6126L29.5748 63.8171L27.7127 52.9513L19.5152 61.1181L18.5749 50.8033L10.6165 59.8875L9.76118 49.0496L0.312637 53.9749C8.49413 26.9515 31.8804 29.6561 53.2294 43.0475ZM113.501 42.0323C115.502 40.9268 117.555 39.928 119.651 39.0396L112.072 35.8288L113.501 42.0323ZM104.698 47.6232C105.71 46.896 106.725 46.1968 107.743 45.5228L103.955 43.9985L104.698 47.6232ZM102.762 69.5563L100.966 67.6348L100.276 69.3633C101.105 69.4175 101.934 69.4818 102.762 69.5563ZM58.3295 66.6448C58.728 65.8812 59.2061 65.1624 59.74 64.48L59.0414 62.869L55.2057 66.6559C56.2363 66.6168 57.2856 66.642 58.3295 66.6448ZM61.2993 48.686L63.8945 43.4754L54.3264 43.7467C56.7126 45.2941 59.0388 46.9419 61.2993 48.686Z" fill="#20A7E1"/>
</svg>
