<svg width="240" height="223" viewBox="0 0 240 223" fill="none" xmlns="http://www.w3.org/2000/svg">
<path d="M160.316 60.716L152.296 46.312L171.1 47.172L162.264 33.78L179.452 34.076L170.14 22.216L188 23.72L178.084 11.4L193.388 6.992C146.272 -19.448 121.468 34.136 118.7 83.784C104.364 33.504 62.08 -18.116 19.544 26.9L36.136 25.744L29.592 41.196L47.104 33.4L41.04 48.188L58.22 41.796L54.64 52.948C30.896 45.352 9.136 51.028 0 82.1L14.216 74.476L15.504 91.272L27.5 77.188L28.904 93.172L41.252 80.516L44.06 97.36L57.184 83.096L61.592 101.392L73.432 89L76.3 99.752C43.304 104.94 18.932 122.752 40.024 156.772L43.004 143.82L54.708 153.484L52.216 137.828L63.468 146.92L62.1 131.936L74.7 140.748L72.72 124.32L87.156 133.116L85.696 118.592L89.936 121.048C91.52 126.044 94.724 130.168 99.144 132.664C100.412 133.384 101.776 133.924 103.18 134.348L122.348 240H128.444L127.752 236.192L153.608 231.392L126.028 226.704L122.932 209.624L148.384 204.888L121.236 200.292L118.056 182.768L141.56 178.396L116.492 174.144L113.212 156.064L135.58 151.904L111.724 147.856L109.428 135.208C112.594 135.134 115.708 134.393 118.568 133.032C120.128 134.656 121.86 136.04 123.78 137.04L115.112 138.652L139.26 142.752L144.856 161.34L124.4 165.148L147.164 169.004L152.816 187.784L132.08 191.64L155.156 195.556L160.732 214.076L138.908 218.136L163.196 222.256L168.54 240H174.804L143.232 135.12C146.279 132.38 148.156 128.573 148.476 124.488C148.606 122.547 148.423 120.598 147.932 118.716L156.528 113.312L154.428 127.068L168.036 118.14L165.372 133.732L177.3 124.856L175.276 139.044L185.996 129.972L182.912 144.848L194.068 135.224L196.108 147.304C217.748 113.2 194.352 97.536 163.056 94.824L166.56 82.712L178.396 94.148L182.812 77.256L195.936 90.42L198.74 74.88L211.084 86.56L212.5 71.808L224.484 84.8L225.772 69.3L240 76.344C227.68 37.696 192.464 41.564 160.316 60.716ZM69.556 59.264C66.543 57.6831 63.4524 56.2546 60.296 54.984L71.708 50.392L69.556 59.264ZM82.812 67.26C81.288 66.22 79.76 65.22 78.228 64.256L83.932 62.076L82.812 67.26ZM85.728 98.628L88.432 95.88L89.472 98.352C88.223 98.4295 86.9749 98.5215 85.728 98.628ZM152.636 94.464C152.036 93.372 151.316 92.344 150.512 91.368L151.564 89.064L157.34 94.48C155.788 94.424 154.208 94.46 152.636 94.464ZM148.164 68.78L144.256 61.328L158.664 61.716C155.071 63.929 151.568 66.2856 148.164 68.78Z" fill="#57E1FF"/>
</svg>
